<svg width="200" height="200" viewBox="0 0 200 200" fill="none" xmlns="http://www.w3.org/2000/svg">
<rect width="200" height="200" rx="51" fill="#008036"/>
<path d="M58 67.63C60.4747 67.7154 67.728 67.886 67.728 67.886C78.4951 77.63 82.9951 69.13 80.4951 68.13H82.9951C83.3021 75.2541 88.9951 70.13 88.4951 67.9547C88.4951 67.9547 91.0517 67.9132 92.304 67.886C96.2293 67.8007 99.0027 67.758 100.624 67.758C112.315 67.758 121.019 69.6354 126.736 73.39C132.453 77.1447 135.312 81.966 135.312 87.854C135.312 90.8407 134.245 93.9553 132.112 97.198C129.979 100.355 126.736 103.171 122.384 105.646C118.032 108.035 112.485 109.657 105.744 110.51V110.766C114.533 111.193 121.573 112.558 126.864 114.862C132.155 117.166 135.995 119.982 138.384 123.31C140.773 126.553 141.968 129.923 141.968 133.422C141.968 139.139 140.432 143.833 137.36 147.502C134.288 151.171 129.851 153.902 124.048 155.694C118.331 157.401 111.504 158.254 103.568 158.254C101.52 158.254 98.4907 158.211 94.48 158.126C90.5547 157.955 85.8187 157.87 80.272 157.87C76.0053 157.87 71.824 157.913 67.728 157.998C63.7173 157.998 60.4747 158.083 58 158.254V155.694C60.6453 155.523 62.608 155.182 63.888 154.67C65.168 154.158 66.0213 153.134 66.448 151.598C66.8747 150.062 67.088 147.758 67.088 144.686V81.198C67.088 78.0407 66.8747 75.7367 66.448 74.286C66.0213 72.75 65.1253 71.726 63.76 71.214C62.48 70.6167 60.56 70.2754 58 70.19V67.63ZM99.984 70.19C97.0827 70.19 95.2053 70.9153 94.352 72.366C93.4987 73.8167 93.072 76.7607 93.072 81.198V144.686C93.072 147.673 93.2853 149.934 93.712 151.47C94.1387 153.006 94.9493 154.03 96.144 154.542C97.3387 155.054 99.088 155.31 101.392 155.31C106.171 155.31 109.627 153.39 111.76 149.55C113.979 145.625 115.088 140.078 115.088 132.91C115.088 126.339 113.509 121.262 110.352 117.678C107.28 114.094 102.117 112.302 94.864 112.302H93.072C93.072 112.302 93.072 111.955 93.072 111.272C93.072 110.504 93.072 110.126 93.072 110.126H96.528C99.856 110.126 102.416 109.187 104.208 107.31C106 105.347 107.237 102.787 107.92 99.63C108.603 96.3873 108.944 92.9313 108.944 89.262C108.944 82.9473 108.261 78.2113 106.896 75.054C105.531 71.8113 103.227 70.19 99.984 70.19Z" fill="#004C20"/>
<path fill-rule="evenodd" clip-rule="evenodd" d="M69.8931 66.5186C63.3921 59.0188 70.3921 42.4474 71.3921 42.0188C72.3921 41.5902 90.8921 48.5188 90.8931 59.0188C90.8936 63.7196 85.9951 71.1711 84.1941 68C84.1941 68 84.6714 67.3274 82.3931 62C80.1148 56.6727 78.5329 55.8602 78.3931 56C78.2533 56.1398 79.3931 58.5 79.3931 63.5C79.3931 68.5 79.3931 68.5 79.3931 68.5C78.6148 70.64 72.4984 69.5241 69.8931 66.5186Z" fill="#008036"/>
<path d="M58.0862 65.1315L55.5 65.0423V67.63V70.19V72.6081L57.9167 72.6886C60.3693 72.7704 61.884 73.0974 62.7028 73.4795L62.791 73.5207L62.8822 73.5548C63.4218 73.7572 63.8032 74.1056 64.0392 74.9551L64.0443 74.9733L64.0496 74.9914C64.3692 76.0781 64.588 78.0788 64.588 81.198V144.686C64.588 147.7 64.3727 149.729 64.0392 150.929C63.7843 151.847 63.396 152.174 62.9595 152.349C62.0572 152.71 60.417 153.033 57.839 153.199L55.5 153.35V155.694V158.254V160.932L58.172 160.748C60.5656 160.583 63.7444 160.498 67.728 160.498H67.754L67.7801 160.498C71.858 160.413 76.022 160.37 80.272 160.37C85.7959 160.37 90.4935 160.455 94.3714 160.624L94.3991 160.625L94.4268 160.626C98.4419 160.711 101.493 160.754 103.568 160.754C111.672 160.754 118.752 159.884 124.763 158.09L124.774 158.086L124.786 158.083C130.926 156.187 135.822 153.233 139.277 149.107C142.796 144.904 144.468 139.607 144.468 133.422C144.468 129.316 143.056 125.44 140.405 121.839C137.667 118.031 133.399 114.981 127.862 112.57C125.305 111.457 122.404 110.561 119.168 109.874C120.739 109.27 122.213 108.592 123.587 107.837L123.603 107.828L123.62 107.819C128.205 105.212 131.778 102.158 134.183 98.5977L134.192 98.5849L134.201 98.5721C136.523 95.0421 137.812 91.4559 137.812 87.854C137.812 80.977 134.397 75.4302 128.108 71.3003C121.786 67.1484 112.495 65.258 100.624 65.258C98.9726 65.258 96.1749 65.3013 92.2497 65.3866C92.0936 65.39 91.9167 65.3936 91.7268 65.3974C92.6944 63.3999 93.3933 61.0897 93.3931 59.0186C93.3928 55.6264 91.8949 52.6796 89.914 50.2808C87.9356 47.885 85.3551 45.8829 82.8493 44.3051C80.3306 42.7191 77.7876 41.4994 75.7929 40.6979C74.7976 40.2981 73.9048 39.9886 73.1931 39.7887C72.8434 39.6905 72.4884 39.6048 72.162 39.5537C72.0015 39.5287 71.7945 39.5033 71.5695 39.5003C71.4182 39.4983 70.9361 39.4943 70.4073 39.721C69.9096 39.9343 69.5923 40.255 69.4777 40.3745C69.322 40.5366 69.1964 40.7005 69.1034 40.831C68.9151 41.0952 68.7364 41.3984 68.5736 41.7002C68.242 42.3149 67.8732 43.1171 67.502 44.0412C66.7573 45.8951 65.9459 48.3834 65.3816 51.1104C64.8196 53.8264 64.4822 56.8764 64.7548 59.8175C64.9285 61.6922 65.3577 63.5943 66.1857 65.3483C65.5269 65.3323 64.7163 65.3125 63.8548 65.2908C61.729 65.2374 59.3095 65.1737 58.0862 65.1315ZM95.572 144.686V114.808C102.074 114.922 106.146 116.613 108.454 119.305L108.465 119.318L108.476 119.331C111.102 122.311 112.588 126.719 112.588 132.91C112.588 139.877 111.5 144.929 109.584 148.32L109.579 148.328L109.575 148.336C107.928 151.3 105.36 152.81 101.392 152.81C99.2052 152.81 97.8585 152.557 97.1288 152.244C96.7886 152.098 96.3952 151.789 96.1208 150.801C95.7863 149.597 95.572 147.607 95.572 144.686ZM96.528 107.626H95.572V81.198C95.572 79.0471 95.6762 77.3314 95.8661 76.0206C96.0632 74.6613 96.3252 73.9423 96.5068 73.6336C96.6571 73.3782 97.3153 72.69 99.984 72.69C101.171 72.69 102.036 72.9794 102.705 73.4505C103.389 73.9315 104.046 74.7279 104.592 76.0241L104.597 76.0352L104.601 76.0463C105.761 78.7281 106.444 83.0509 106.444 89.262C106.444 92.7739 106.118 96.0537 105.475 99.1081C104.868 101.911 103.806 104.034 102.381 105.603C101.185 106.845 99.3616 107.626 96.528 107.626Z" stroke="#E5F2EA" stroke-width="5"/>
</svg>
